<svg version="1.1" id="央铋_1" xmlns="http://www.w3.org/2000/svg" xmlns:xlink="http://www.w3.org/1999/xlink" x="0px" y="0px" viewBox="6.899997711181641 7 386.2099914550781 386.21002197265625" enable-background="new 0 0 400 400" xml:space="preserve">
<path fill="#EE7718" d="M118.48,301.01c-9.73,28.96-15.03,59.98-15.03,92.2H6.9c0-50.21,9.65-98.17,27.16-142.23
	C67.79,257.37,97.42,275.53,118.48,301.01z"></path>
<path fill="#EE7718" d="M200,58.84c-31.08,18.04-59.44,40.25-84.25,65.97c-11.94,12.25-23.04,25.34-33.25,39.15
	c31.45,10.38,60.05,27.1,84.31,48.64c10.08-12.61,21.18-24.37,33.19-35.12c24.62-22.09,53.1-40.06,84.24-52.67
	c33.61-13.71,70.36-21.25,108.87-21.25V7C322.8,7,256.85,25.89,200,58.84z"></path>
<path fill="#18ADB8" d="M200,248.57c-30.35,40.3-48.27,90.44-48.27,144.64c0-34.99-12.49-67.16-33.25-92.2
	c-21.06-25.47-50.69-43.64-84.42-50.03c-8.76-1.68-17.87-2.59-27.16-2.59v-96.55c26.37,0,51.84,4.23,75.61,12.13
	c31.45,10.38,60.05,27.1,84.31,48.64C179.06,223.4,190.22,235.47,200,248.57z"></path>
<path fill="#EE7718" d="M393.1,151.83v96.55c-9.3,0-18.41,0.91-27.15,2.59c-12.43-31.2-28.79-60.4-48.46-87.02
	C341.27,156.06,366.73,151.83,393.1,151.83z"></path>
<path fill="#EE7718" d="M233.19,212.6c-12.26,10.81-23.42,22.88-33.19,35.97c-30.35,40.3-48.27,90.44-48.27,144.64h96.55
	c0-34.99,12.48-67.16,33.25-92.2C270.6,268.59,254.12,238.73,233.19,212.6z"></path>
<path fill="#18ADB8" d="M393.1,393.2h-96.55c0-32.22-5.32-63.24-15.03-92.2c-10.93-32.42-27.41-62.28-48.33-88.41
	c-10.08-12.61-21.18-24.37-33.19-35.12c24.62-22.09,53.1-40.06,84.24-52.67c11.95,12.25,23.05,25.34,33.25,39.15
	c19.67,26.61,36.03,55.82,48.46,87.02C383.44,295.03,393.1,343,393.1,393.2z"></path>
<path fill="#18ADB8" d="M6.9,7v96.55c38.5,0,75.26,7.54,108.86,21.25c24.81-25.72,53.16-47.92,84.25-65.97
	C143.16,25.89,77.2,7,6.9,7z"></path>
</svg>